<svg xmlns="http://www.w3.org/2000/svg" viewBox="0 0 32 32">
  <title>Menu Vorschläge mit Bestätigen und Ablehnen</title>
  <g id="menu-icon" data-name="Menu Icon">
    <!-- Kreis -->
    <path d="M16,0A16,16,0,1,0,32,16,16,16,0,0,0,16,0Zm0,30A14,14,0,1,1,30,16,14,14,0,0,1,16,30Z"/>

    <!-- Erste Linie -->
    <rect x="8" y="10" width="8" height="2" rx="1" ry="1"/>

    <!-- Haken -->
    <path d="M19 9 l2 2 l4 -4" stroke="black" stroke-width="2" fill="none"/>

    <!-- Zweite Linie -->
    <rect x="8" y="15" width="8" height="2" rx="1" ry="1"/>

    <!-- Kreuz -->
    <path d="M19 14 l4 4 M23 14 l-4 4" stroke="black" stroke-width="2" fill="none"/>

    <!-- Dritte Linie -->
    <rect x="8" y="20" width="16" height="2" rx="1" ry="1"/>
  </g>
</svg>
