<svg xmlns="http://www.w3.org/2000/svg" viewBox="0 0 128 128"><title>icon11.1glyph</title><g id="menu"><path d="M92.71,23.71H35.29a3,3,0,0,0-3,3v82.18a3,3,0,0,0,3,3H92.71a3,3,0,0,0,3-3V26.71A3,3,0,0,0,92.71,23.71ZM49,48.21A15.11,15.11,0,0,1,59,35.75V33.82a5,5,0,0,1,10.1,0v1.93A15.11,15.11,0,0,1,79,48.21a4.74,4.74,0,0,1-1.49,9.24h-27A4.74,4.74,0,0,1,49,48.21ZM61,103H40.29a2,2,0,0,1,0-4H61a2,2,0,0,1,0,4Zm0-10H40.29a2,2,0,0,1,0-4H61a2,2,0,0,1,0,4Zm0-10H40.29a2,2,0,0,1,0-4H61a2,2,0,0,1,0,4Zm0-10H40.29a2,2,0,0,1,0-4H61a2,2,0,0,1,0,4Zm26.76,30H79.29a2,2,0,0,1,0-4h8.42a2,2,0,0,1,0,4Zm0-10H79.29a2,2,0,0,1,0-4h8.42a2,2,0,0,1,0,4Zm0-10H79.29a2,2,0,0,1,0-4h8.42a2,2,0,0,1,0,4Zm0-10H79.29a2,2,0,0,1,0-4h8.42a2,2,0,0,1,0,4Z"/><path d="M65.05,33.82a1,1,0,0,0-2.1,0v1.06h2.1Z"/><path d="M64,38.88A11.12,11.12,0,0,0,53.08,48H74.92A11.12,11.12,0,0,0,64,38.88Z"/><path d="M50.5,53.45h27a.74.74,0,0,0,0-1.48h-27a.74.74,0,0,0,0,1.48Z"/><path d="M97.71,17.84H86.83a4,4,0,0,1-4-4,5.78,5.78,0,0,0-5.77-5.77H50.94a5.78,5.78,0,0,0-5.77,5.77,4,4,0,0,1-4,4H30.29a8,8,0,0,0-8,8v88.05a8,8,0,0,0,8,8H97.71a8,8,0,0,0,8-8v-88A8,8,0,0,0,97.71,17.84Zm2,91.05a7,7,0,0,1-7,7H35.29a7,7,0,0,1-7-7V26.71a7,7,0,0,1,7-7H92.71a7,7,0,0,1,7,7Z"/></g></svg>