<svg xmlns="http://www.w3.org/2000/svg" viewBox="0 0 32 32"><g id="check_out" data-name="check out"><path d="M27.9,2.58a.86.86,0,0,0-.07-.1.71.71,0,0,0-.19-.23l0,0-.09,0a1.12,1.12,0,0,0-.25-.11L27.1,2,27,2H12a1,1,0,0,0-1,1V9a1,1,0,0,0,2,0V4h7.19L16.71,5A1,1,0,0,0,16,6V25H13V22a1,1,0,0,0-2,0v4a1,1,0,0,0,1,1h4v2a1,1,0,0,0,.4.8,1,1,0,0,0,.6.2,1,1,0,0,0,.29,0l10-3A1,1,0,0,0,28,26V3A1,1,0,0,0,27.9,2.58ZM26,25.26l-8,2.4V6.74l8-2.4Z"/><path d="M7.41,17H14a1,1,0,0,0,0-2H7.41l1.3-1.29a1,1,0,0,0-1.42-1.42l-3,3a1,1,0,0,0-.21.33,1,1,0,0,0,0,.76,1,1,0,0,0,.21.33l3,3a1,1,0,0,0,1.42,0,1,1,0,0,0,0-1.42Z"/><path d="M20,17a1,1,0,0,0,0-2h0a1,1,0,1,0,0,2Z"/></g></svg>