<svg xmlns="http://www.w3.org/2000/svg" viewBox="0 0 25 25"><defs><style>.cls-1{fill:#231f20;}</style></defs><g id="calendar_add" data-name="calendar add"><path class="cls-1" d="M22.5,3H21V2a1,1,0,0,0-1-1H19a1,1,0,0,0-1,1V3H14V2a1,1,0,0,0-1-1H12a1,1,0,0,0-1,1V3H7V2A1,1,0,0,0,6,1H5A1,1,0,0,0,4,2V3H2.5A1.5,1.5,0,0,0,1,4.5v18A1.5,1.5,0,0,0,2.5,24h20A1.5,1.5,0,0,0,24,22.5V4.5A1.5,1.5,0,0,0,22.5,3ZM19,2l1,0,0,3L19,5ZM12,2l1,0V3.44s0,0,0,.06,0,0,0,.07L13,5,12,5ZM5,2,6,2,6,5,5,5ZM2.5,4H4V5A1,1,0,0,0,5,6H6A1,1,0,0,0,7,5V4h4V5a1,1,0,0,0,1,1H13a1,1,0,0,0,1-1V4h4V5a1,1,0,0,0,1,1H20a1,1,0,0,0,1-1V4h1.5a.5.5,0,0,1,.5.5V8H2V4.5A.5.5,0,0,1,2.5,4Zm20,19H2.5a.5.5,0,0,1-.5-.5V9H23V22.5A.5.5,0,0,1,22.5,23Z"/><path class="cls-1" d="M16,15.5H13v-3a.5.5,0,0,0-1,0v3H9a.5.5,0,0,0,0,1h3v3a.5.5,0,0,0,1,0v-3h3a.5.5,0,0,0,0-1Z"/></g></svg>